<svg xmlns="http://www.w3.org/2000/svg" viewBox="0 0 40 30" style="outline: none;"><path d="M14.5,28.8c2.3,0,4.1-1.9,4.1-4.1V14.4c0-2.3-1.9-4.1-4.1-4.1h-3c-1.9,0-3.1-2-2.3-3.7L11,2.9C11.4,2,10.8,1,9.8,1 C9.4,1,9.1,1.1,8.8,1.4L2.5,7.7C0.9,9.3,0,11.5,0,13.8l0,10.9c0,2.3,1.9,4.1,4.1,4.1H14.5L14.5,28.8z" style="outline: none;"></path><path d="M40,24.7V14.4c0-2.3-1.9-4.1-4.1-4.1h-3c-1.9,0-3.1-2-2.3-3.7l1.8-3.6C32.8,2,32.2,1,31.2,1c-0.4,0-0.7,0.1-0.9,0.4 l-6.3,6.3c-1.6,1.6-2.5,3.8-2.5,6.1v10.9c0,2.3,1.9,4.1,4.1,4.1h10.3C38.1,28.8,40,27,40,24.7z" style="outline: none;"></path></svg>