<?xml version="1.0"?><!DOCTYPE svg  PUBLIC '-//W3C//DTD SVG 1.1//EN'  'http://www.w3.org/Graphics/SVG/1.1/DTD/svg11.dtd'><svg xmlns="http://www.w3.org/2000/svg" xmlns:xlink="http://www.w3.org/1999/xlink" xml:space="preserve" width="512px" height="512px" style="shape-rendering:geometricPrecision; text-rendering:geometricPrecision; image-rendering:optimizeQuality; fill-rule:evenodd; clip-rule:evenodd" viewBox="0 0 512 512"><defs><style type="text/css">
   <![CDATA[
    .fil0 {fill:black}
   ]]>
  </style></defs><g id="Layer_x0020_1"><g id="_213054016"><g><g id="_278277968">

<path id="_284373024" stroke-width="10" class="fil0" d="M247.301 375.4l-241.3 0c-3.30001,0 -6.00002,-2.70001 -6.00002,-6.00002l0 -129.998c0,-69.7998 56.8006,-126.6 126.6,-126.6l0 0c69.7998,0 126.6,56.8006 126.6,126.6l0 129.998c0.0992129,3.30001 -2.6008,6.00002 -5.90081,6.00002zm-235.3 -12l229.3 0 0 -123.998c0,-63.1998 -51.4006,-114.6 -114.6,-114.6l0 0c-63.299,0 -114.7,51.3994 -114.7,114.599l0 124z"/></g><g id="_278277416">

<path id="_284373000" stroke-width="10" class="fil0" d="M126.602 320.7c-42.1997,0 -76.5994,-34.3997 -76.5994,-76.5983 0,-42.1997 34.3997,-76.5994 76.5994,-76.5994 42.1997,0 76.5994,34.3997 76.5994,76.5994 0,42.1986 -34.2993,76.5983 -76.5994,76.5983zm0 -141.199c-35.5997,0 -64.5994,28.9997 -64.5994,64.5994 0,35.5985 28.9997,64.5982 64.5994,64.5982 35.5997,0 64.5994,-28.9997 64.5994,-64.5982 0,-35.5997 -28.8993,-64.5994 -64.5994,-64.5994z"/></g><g id="_278278064">

<path id="_284372880" stroke-width="10" class="fil0" d="M126.602 280.7c-20.2005,0 -36.6001,-16.3997 -36.6001,-36.5989 0,-20.2005 16.3997,-36.6001 36.6001,-36.6001 20.2005,0 36.6001,16.3997 36.6001,36.6001 0.0992129,20.1981 -16.4008,36.5989 -36.6001,36.5989zm0 -61.199c-13.6004,0 -24.6001,11.1 -24.6001,24.6001 0,13.5993 11.1,24.5989 24.6001,24.5989 13.6004,0 24.6001,-10.9996 24.6001,-24.5989 0.0992129,-13.6004 -11.0008,-24.6001 -24.6001,-24.6001z"/></g><g id="_278276840">

<path id="_284373432" stroke-width="10" class="fil0" d="M506 375.4l-258.699 0c-3.30001,0 -6.00002,-2.70001 -6.00002,-6.00002l0 -82.0999c0,-3.30001 2.70001,-6.00002 6.00002,-6.00002l258.699 0c3.30001,0 6.00002,2.70001 6.00002,6.00002l0 82.0999c0,3.30001 -2.70001,6.00002 -6.00002,6.00002zm-252.699 -12l246.699 0 0 -70.0998 -246.699 0 0 70.0998z"/></g><g id="_278277584">

<path id="_284373144" stroke-width="10" class="fil0" d="M213.601 352.1c-8.89963,0 -16.2,-7.30042 -16.2,-16.2 0,-8.89963 7.30042,-16.2 16.2,-16.2 8.89963,0 16.2,7.30042 16.2,16.2 0,8.90081 -7.20002,16.2 -16.2,16.2zm0 -20.4993c-2.29961,0 -4.20001,1.9004 -4.20001,4.20001 0,2.29961 1.9004,4.20001 4.20001,4.20001 2.29961,0 4.20001,-1.9004 4.20001,-4.20001 0,-2.30079 -1.89922,-4.20001 -4.20001,-4.20001z"/></g><g id="_278277632">

<path id="_213054232" stroke-width="10" class="fil0" d="M280.6 375.4c-3.30001,0 -6.00002,-2.70001 -6.00002,-6.00002l0 -17.2997c0,-3.30001 2.70001,-6.00002 6.00002,-6.00002 3.30001,0 6.00002,2.70001 6.00002,6.00002l0 17.2997c0,3.30001 -2.70001,6.00002 -6.00002,6.00002z"/></g><g id="_278278760">

<path id="_213054256" stroke-width="10" class="fil0" d="M319 375.4c-3.30001,0 -6.00002,-2.70001 -6.00002,-6.00002l0 -29.7001c0,-3.30001 2.70001,-6.00002 6.00002,-6.00002 3.30001,0 6.00002,2.70001 6.00002,6.00002l0 29.7001c0,3.30001 -2.70001,6.00002 -6.00002,6.00002z"/></g><g id="_278278328">

<path id="_213054352" class="fil0" d="M357.4 375.4c-3.30001,0 -6.00002,-2.70001 -6.00002,-6.00002l0 -17.2997c0,-3.30001 2.70001,-6.00002 6.00002,-6.00002 3.30001,0 6.00002,2.70001 6.00002,6.00002l0 17.2997c0,3.30001 -2.70001,6.00002 -6.00002,6.00002z"/></g><g id="_278278832">

<path id="_213054304" class="fil0" d="M395.9 375.4c-3.30001,0 -6.00002,-2.70001 -6.00002,-6.00002l0 -29.7001c0,-3.30001 2.70001,-6.00002 6.00002,-6.00002 3.30001,0 6.00002,2.70001 6.00002,6.00002l0 29.7001c0,3.30001 -2.70001,6.00002 -6.00002,6.00002z"/></g><g id="_278278856">

<path id="_213054712" class="fil0" d="M434.3 375.4c-3.30001,0 -6.00002,-2.70001 -6.00002,-6.00002l0 -17.2997c0,-3.30001 2.70001,-6.00002 6.00002,-6.00002 3.30001,0 6.00002,2.70001 6.00002,6.00002l0 17.2997c0,3.30001 -2.70001,6.00002 -6.00002,6.00002z"/></g><g id="_278279192">

<path id="_213053896" class="fil0" d="M472.7 375.4c-3.30001,0 -6.00002,-2.70001 -6.00002,-6.00002l0 -29.7001c0,-3.30001 2.70001,-6.00002 6.00002,-6.00002 3.30001,0 6.00002,2.70001 6.00002,6.00002l0 29.7001c0,3.30001 -2.70001,6.00002 -6.00002,6.00002z"/></g><g id="_278279480">

<path id="_213053800" class="fil0" d="M506 399.2c-3.30001,0 -6.00002,-2.70001 -6.00002,-6.00002l0 -23.8005c0,-3.30001 2.70001,-6.00002 6.00002,-6.00002 3.30001,0 6.00002,2.70001 6.00002,6.00002l0 23.8005c0,3.30001 -2.70001,6.00002 -6.00002,6.00002z"/></g></g></g></g></svg>